<svg width="21" height="20" viewBox="0 0 21 20" fill="none" xmlns="http://www.w3.org/2000/svg">
<path d="M7.52116 8.33333C8.44163 8.33333 9.18783 7.58714 9.18783 6.66667C9.18783 5.74619 8.44163 5 7.52116 5C6.60068 5 5.85449 5.74619 5.85449 6.66667C5.85449 7.58714 6.60068 8.33333 7.52116 8.33333Z" stroke="#10011C" stroke-linecap="round" stroke-linejoin="round"/>
<path d="M10.8542 1.66663H7.52083C3.35417 1.66663 1.6875 3.33329 1.6875 7.49996V12.5C1.6875 16.6666 3.35417 18.3333 7.52083 18.3333H12.5208C16.6875 18.3333 18.3542 16.6666 18.3542 12.5V8.33329" stroke="#10011C" stroke-linecap="round" stroke-linejoin="round"/>
<path d="M15.021 6.66663V1.66663L16.6877 3.33329" stroke="#10011C" stroke-linecap="round" stroke-linejoin="round"/>
<path d="M15.0212 1.66663L13.3545 3.33329" stroke="#10011C" stroke-linecap="round" stroke-linejoin="round"/>
<path d="M2.24609 15.7917L6.35443 13.0333C7.01276 12.5917 7.96276 12.6417 8.55443 13.15L8.82943 13.3917C9.47943 13.95 10.5294 13.95 11.1794 13.3917L14.6461 10.4167C15.2961 9.85834 16.3461 9.85834 16.9961 10.4167L18.3544 11.5833" stroke="#10011C" stroke-linecap="round" stroke-linejoin="round"/>
</svg>
