<svg width="18" height="20" viewBox="0 0 18 20" fill="none" xmlns="http://www.w3.org/2000/svg">
<path fill-rule="evenodd" clip-rule="evenodd" d="M1.07094 0.883398C0.900836 0.942831 0.736348 1.08306 0.659132 1.23445C0.58857 1.37271 0.587891 1.45801 0.587891 9.99653C0.587891 16.0017 0.599448 18.6495 0.625962 18.7197C0.680064 18.8629 0.83278 19.0154 0.999378 19.0925C1.13696 19.1562 1.38768 19.1588 7.4801 19.1596C14.2975 19.1604 14.0571 19.1664 14.6696 18.9791C15.9114 18.5991 16.9277 17.5397 17.2829 16.2551C17.3975 15.8404 17.4397 15.0565 17.3706 14.6252C17.1019 12.9478 15.7664 11.6069 14.1084 11.3496L13.8092 11.3032L13.7913 7.59258L13.7734 3.88196L12.3063 2.41242C11.4995 1.60418 10.7958 0.919788 10.7427 0.891556C10.6657 0.850658 10.4523 0.84021 9.69429 0.84021C8.68465 0.84021 8.58335 0.855167 8.49669 1.01715C8.43121 1.13949 8.4536 1.32992 8.5461 1.43755L8.63241 1.53795L9.43169 1.55584L10.231 1.57373L10.2489 2.77241C10.2611 3.58895 10.2801 3.99392 10.3084 4.04266C10.3623 4.13515 10.5286 4.28884 10.6425 4.35138C10.7112 4.38906 11.0065 4.40462 11.9128 4.41837L13.0935 4.43626V7.86935V11.3024L12.7715 11.3657C11.5286 11.6098 10.5208 12.3761 9.9619 13.5021C9.66166 14.1069 9.55242 14.649 9.57561 15.4191L9.59128 15.94H5.42942H1.26756L1.27661 8.75688L1.28563 1.57373L3.51614 1.55584L5.74666 1.53795L5.833 1.43755C5.92557 1.32992 5.948 1.13952 5.88249 1.01715C5.78738 0.839423 5.79554 0.839995 3.40748 0.843037C1.95178 0.844897 1.14104 0.858888 1.07094 0.883398ZM7.02052 0.895993C6.71448 1.06206 6.841 1.55584 7.18959 1.55584C7.54304 1.55584 7.66512 1.05651 7.35132 0.89424C7.22218 0.827472 7.14604 0.827865 7.02052 0.895993ZM11.7875 2.89765L12.592 3.70273H11.7604H10.9288V2.92152C10.9288 2.27272 10.9398 2.09256 10.9797 2.09256C10.9797 2.09256 11.345 2.45485 11.7875 2.89765ZM3.37885 6.75261C3.29544 6.78274 3.23254 6.83967 3.19046 6.92307C3.13253 7.038 3.12809 7.1783 3.13679 8.62878L3.14627 10.2093L3.2325 10.301C3.39052 10.4692 3.6319 10.457 3.78061 10.2734C3.83285 10.2089 3.84254 10.1153 3.84322 9.66931L3.84401 9.14153L4.03186 9.14081C4.73139 9.13817 5.19527 8.90233 5.42438 8.4328C5.52209 8.23254 5.55569 7.8111 5.49168 7.58897C5.39521 7.25448 5.09669 6.94168 4.73855 6.79984C4.52833 6.71661 3.5706 6.68334 3.37885 6.75261ZM9.49234 6.79841C9.44032 6.82668 9.37992 6.90093 9.35816 6.96336C9.33165 7.0394 9.31859 7.57788 9.31859 8.59404C9.31859 9.87723 9.32693 10.1273 9.37262 10.2157C9.44103 10.3479 9.52712 10.3939 9.70664 10.3939C9.82161 10.3939 9.86673 10.3727 9.94158 10.2838C10.0337 10.1743 10.0342 10.1701 10.0342 9.53237V8.89106H10.4842C10.9339 8.89106 10.9343 8.89099 11.0389 8.78647C11.2231 8.60223 11.1594 8.33065 10.9073 8.22531C10.8309 8.19335 10.6524 8.17543 10.4111 8.17543H10.0342V7.81761V7.4598H10.4647C10.9575 7.4598 11.1086 7.41632 11.1948 7.24969C11.2256 7.19008 11.2508 7.12281 11.2508 7.10023C11.2508 7.00691 11.134 6.82289 11.0506 6.78492C10.911 6.7213 9.61357 6.73257 9.49234 6.79841ZM6.20563 6.88175L6.09825 6.98913V8.57929V10.1694L6.19085 10.2621C6.31823 10.3894 6.51346 10.4115 7.14099 10.3693C7.60483 10.3382 7.68999 10.3222 7.87491 10.2319C8.41174 9.96966 8.73266 9.41855 8.77034 8.69426C8.81421 7.85039 8.47697 7.18317 7.8606 6.89431C7.66376 6.80206 7.62537 6.79734 6.98388 6.7861L6.31301 6.77437L6.20563 6.88175ZM4.45831 7.46087C4.53191 7.4813 4.63797 7.55247 4.69983 7.62293C4.79111 7.72691 4.81011 7.7789 4.81011 7.92496C4.81011 8.07112 4.79115 8.12297 4.69951 8.22735C4.56662 8.3787 4.39115 8.43327 4.08443 8.41863L3.8619 8.40801L3.85181 7.96271C3.84623 7.71782 3.84977 7.4964 3.85961 7.47071C3.88158 7.4135 4.26502 7.40716 4.45831 7.46087ZM7.59356 7.56367C7.76867 7.65348 7.86625 7.76233 7.96583 7.97906C8.03618 8.13213 8.04788 8.21615 8.04809 8.56903C8.04831 8.94802 8.0404 8.99672 7.94765 9.18554C7.77175 9.54379 7.5216 9.67825 7.03104 9.67825H6.82232L6.80619 8.61375C6.79731 8.02826 6.79638 7.53716 6.80408 7.52241C6.8118 7.50767 6.9627 7.49558 7.13946 7.49558C7.38495 7.49558 7.49212 7.51164 7.59356 7.56367ZM14.216 12.0929C15.2989 12.3564 16.1759 13.15 16.5279 14.1847C16.6548 14.5578 16.6964 14.8309 16.6945 15.2781C16.6908 16.1483 16.3477 16.9337 15.7007 17.5524C15.1034 18.1236 14.4562 18.3992 13.6279 18.4351C12.7314 18.4741 11.9556 18.1903 11.3142 17.5888C10.5441 16.8667 10.1874 15.9286 10.2908 14.8977C10.4338 13.4715 11.4985 12.3309 12.9448 12.0545C13.2571 11.9948 13.8918 12.014 14.216 12.0929ZM9.95414 16.9509C10.1986 17.4537 10.6001 17.9515 11.0483 18.3073L11.2215 18.4447H6.2446H1.26774V17.5741C1.26774 17.0952 1.27847 16.6926 1.29161 16.6795C1.3047 16.6664 3.22685 16.6557 5.56303 16.6557H9.81062L9.95414 16.9509Z" fill="#10011C"/>
<path d="M13.7905 17.1954C13.7704 17.2331 13.71 17.2878 13.6564 17.3169C13.6027 17.346 13.5299 17.3705 13.4945 17.3712C13.4003 17.3734 13.2267 17.2752 13.1842 17.1957C13.1608 17.1519 13.1474 16.6194 13.1474 15.7291C13.1474 14.9603 13.1367 14.3312 13.1236 14.3312C13.1105 14.3312 13.0001 14.427 12.8783 14.544C12.6331 14.7794 12.5194 14.8266 12.3581 14.7597C12.2119 14.6992 12.1455 14.594 12.1455 14.4228C12.1455 14.2857 12.1696 14.2558 12.746 13.6794C13.3193 13.106 13.3529 13.0789 13.4873 13.0789C13.6217 13.0789 13.6553 13.106 14.2286 13.6794C14.805 14.2558 14.8291 14.2857 14.8291 14.4228C14.8291 14.594 14.7627 14.6992 14.6165 14.7597C14.4552 14.8266 14.3415 14.7794 14.0963 14.544C13.9745 14.427 13.8641 14.3312 13.851 14.3312C13.8379 14.3312 13.8272 14.9603 13.8272 15.7291C13.8272 16.6154 13.8138 17.152 13.7905 17.1954Z" fill="#10011C"/>
</svg>
