<svg width="21" height="20" viewBox="0 0 21 20" fill="none" xmlns="http://www.w3.org/2000/svg">
<path d="M17.5208 7.20831V11.9583C17.5208 12.2416 17.5125 12.5166 17.4958 12.775C16.8958 12.0916 16.0042 11.6666 15.0208 11.6666C13.1792 11.6666 11.6875 13.1583 11.6875 15C11.6875 15.625 11.8625 16.2166 12.1708 16.7166C12.3375 17 12.5542 17.2583 12.8042 17.4749C12.5458 17.4916 12.2708 17.5 11.9792 17.5H7.22916C3.27083 17.5 1.6875 15.9166 1.6875 11.9583V7.20831C1.6875 3.24998 3.27083 1.66663 7.22916 1.66663H11.9792C15.9375 1.66663 17.5208 3.24998 17.5208 7.20831Z" stroke="#10011C" stroke-linecap="round" stroke-linejoin="round"/>
<path d="M18.3542 15C18.3542 15.625 18.1792 16.2166 17.8708 16.7166C17.2958 17.6833 16.2375 18.3333 15.0208 18.3333C13.8042 18.3333 12.7458 17.6833 12.1708 16.7166C11.8625 16.2166 11.6875 15.625 11.6875 15C11.6875 13.1583 13.1792 11.6666 15.0208 11.6666C16.8625 11.6666 18.3542 13.1583 18.3542 15Z" stroke="#10011C" stroke-miterlimit="10" stroke-linecap="round" stroke-linejoin="round"/>
<path d="M7.93739 10.3298C8.93496 10.3298 9.74295 9.52185 9.74295 8.52428V6.04164C9.74295 5.04407 8.93496 4.23608 7.93739 4.23608C6.93982 4.23608 6.13184 5.04407 6.13184 6.04164V8.52428C6.13184 9.52185 6.93982 10.3298 7.93739 10.3298Z" stroke="#10011C" stroke-width="0.8125" stroke-linecap="round" stroke-linejoin="round"/>
<path d="M4.48438 7.68921V8.45657C4.48438 10.3614 6.03264 11.9097 7.9375 11.9097C9.84236 11.9097 11.3906 10.3614 11.3906 8.45657V7.68921" stroke="#10011C" stroke-width="0.8125" stroke-linecap="round" stroke-linejoin="round"/>
<path d="M7.31055 6.23586C7.7168 6.08691 8.15916 6.08691 8.56541 6.23586" stroke="#10011C" stroke-width="0.8125" stroke-linecap="round" stroke-linejoin="round"/>
<path d="M7.57666 7.19278C7.8159 7.12959 8.06416 7.12959 8.3034 7.19278" stroke="#10011C" stroke-width="0.8125" stroke-linecap="round" stroke-linejoin="round"/>
<path d="M7.9375 11.9098V13.264" stroke="#10011C" stroke-width="0.8125" stroke-linecap="round" stroke-linejoin="round"/>
<path d="M15.0005 16.634V13.7122L15.9744 14.6861" stroke="#10011C" stroke-width="0.6" stroke-linecap="round" stroke-linejoin="round"/>
<path d="M15.0003 13.7122L14.0264 14.6861" stroke="#10011C" stroke-width="0.6" stroke-linecap="round" stroke-linejoin="round"/>
</svg>
